<?xml version="1.0" encoding="UTF-8" standalone="no"?>
<svg
   width="3259.323"
   height="2300"
   version="1.1"
   id="svg11"
   sodipodi:docname="banners.svg"
   inkscape:version="1.1.1 (3bf5ae0d25, 2021-09-20)"
   xmlns:inkscape="http://www.inkscape.org/namespaces/inkscape"
   xmlns:sodipodi="http://sodipodi.sourceforge.net/DTD/sodipodi-0.dtd"
   xmlns="http://www.w3.org/2000/svg"
   xmlns:svg="http://www.w3.org/2000/svg"
   xmlns:rdf="http://www.w3.org/1999/02/22-rdf-syntax-ns#"
   xmlns:cc="http://creativecommons.org/ns#"
   xmlns:dc="http://purl.org/dc/elements/1.1/">
  <defs
     id="defs15" />
  <sodipodi:namedview
     pagecolor="#ffffff"
     bordercolor="#666666"
     borderopacity="1"
     objecttolerance="10"
     gridtolerance="10"
     guidetolerance="10"
     inkscape:pageopacity="0"
     inkscape:pageshadow="2"
     inkscape:window-width="1920"
     inkscape:window-height="1017"
     id="namedview13"
     showgrid="false"
     inkscape:zoom="0.6675088"
     inkscape:cx="784.25932"
     inkscape:cy="1761.0255"
     inkscape:window-x="-8"
     inkscape:window-y="1072"
     inkscape:window-maximized="1"
     inkscape:current-layer="svg11"
     showguides="true"
     inkscape:guide-bbox="true"
     inkscape:pagecheckerboard="true">
    <inkscape:grid
       type="xygrid"
       id="grid913" />
    <sodipodi:guide
       position="250,2457.6271"
       orientation="1,0"
       inkscape:locked="false"
       id="guide47" />
    <sodipodi:guide
       position="2000,1673.7288"
       orientation="1,0"
       id="guide49"
       inkscape:locked="false" />
    <sodipodi:guide
       position="7.7734376e-06,1800"
       orientation="0,1"
       id="guide59"
       inkscape:locked="false" />
    <sodipodi:guide
       position="8.1054695e-06,1200"
       orientation="0,1"
       id="guide61"
       inkscape:locked="false" />
    <sodipodi:guide
       position="8.1054695e-06,600"
       orientation="0,1"
       id="guide63"
       inkscape:locked="false" />
  </sodipodi:namedview>
  <metadata
     id="metadata7">image/svg+xml<rdf:RDF>
  <cc:Work
     rdf:about="">
    <dc:format>image/svg+xml</dc:format>
    <dc:type
       rdf:resource="http://purl.org/dc/dcmitype/StillImage" />
  </cc:Work>
</rdf:RDF>
</metadata>
  <rect
     style="opacity:1;fill:#0c479d;fill-opacity:1;stroke:#0c479d;stroke-width:0.50505;stroke-miterlimit:4;stroke-dasharray:none;stroke-opacity:1"
     id="rect954"
     width="1484.5544"
     height="507.55417"
     x="-3.7764513"
     y="1796.2235"
     rx="25.127869"
     ry="25.377708"
     inkscape:export-filename="D:\data-dev\umarcor\dbhi\dbhi-gh\VUnit\vunit\docs\_static\VUnit_banner.png"
     inkscape:export-xdpi="82.762032"
     inkscape:export-ydpi="82.762032" />
  <rect
     ry="25"
     rx="25"
     y="0"
     x="1750"
     height="500"
     width="500"
     id="rect972"
     style="opacity:1;fill:#0c479d;fill-opacity:1;stroke:none;stroke-width:0.5;stroke-miterlimit:4;stroke-dasharray:none;stroke-opacity:1"
     inkscape:export-xdpi="80.639999"
     inkscape:export-ydpi="80.639999" />
  <rect
     ry="25"
     rx="25"
     y="15"
     x="1765"
     height="470"
     width="470"
     id="rect974"
     style="opacity:1;fill:#ffffff;fill-opacity:1;stroke:none;stroke-width:0.5;stroke-miterlimit:4;stroke-dasharray:none;stroke-opacity:1"
     inkscape:export-xdpi="80.639999"
     inkscape:export-ydpi="80.639999" />
  <text
     id="text978"
     y="435.76273"
     x="1808.9507"
     style="font-style:normal;font-weight:normal;font-size:40px;line-height:1.25;font-family:sans-serif;letter-spacing:0px;word-spacing:0px;fill:#0c479d;fill-opacity:1;stroke:none"
     xml:space="preserve"
     inkscape:export-xdpi="80.639999"
     inkscape:export-ydpi="80.639999"><tspan
       style="font-style:normal;font-variant:normal;font-weight:normal;font-stretch:normal;font-size:469.333px;font-family:TratexSvart;-inkscape-font-specification:TratexSvart;fill:#0c479d;fill-opacity:1"
       y="435.76273"
       x="1808.9507"
       id="tspan976"
       sodipodi:role="line">V</tspan></text>
  <rect
     style="opacity:1;fill:#ffffff;fill-opacity:1;stroke:#0c479d;stroke-width:0.5;stroke-miterlimit:4;stroke-dasharray:none;stroke-opacity:1"
     id="rect819-2"
     width="1477"
     height="500"
     x="-3.8867188e-006"
     y="1800"
     rx="25"
     ry="25"
     inkscape:export-filename="D:\data-dev\umarcor\dbhi\dbhi-gh\VUnit\vunit\docs\_static\VUnit_banner.png"
     inkscape:export-xdpi="82.762032"
     inkscape:export-ydpi="82.762032" />
  <rect
     style="opacity:1;fill:#0c479d;fill-opacity:1;stroke:none;stroke-width:0.87731457;stroke-miterlimit:4;stroke-dasharray:none;stroke-opacity:1"
     id="rect819-5-6"
     width="1447"
     height="470"
     x="14.999996"
     y="1815"
     rx="25"
     ry="25"
     inkscape:export-filename="D:\data-dev\umarcor\dbhi\dbhi-gh\VUnit\vunit\docs\_static\VUnit_banner.png"
     inkscape:export-xdpi="82.762032"
     inkscape:export-ydpi="82.762032" />
  <text
     xml:space="preserve"
     style="font-style:normal;font-weight:normal;font-size:40px;line-height:1.25;font-family:sans-serif;letter-spacing:0px;word-spacing:0px;fill:#ffffff;fill-opacity:1;stroke:none"
     x="41.882938"
     y="2239.7627"
     id="text854-6"
     inkscape:export-filename="D:\data-dev\umarcor\dbhi\dbhi-gh\VUnit\vunit\docs\_static\VUnit_banner.png"
     inkscape:export-xdpi="82.762032"
     inkscape:export-ydpi="82.762032"><tspan
       sodipodi:role="line"
       id="tspan852-9"
       x="41.882938"
       y="2239.7627"
       style="font-style:normal;font-variant:normal;font-weight:normal;font-stretch:normal;font-size:469.333px;font-family:TratexSvart;-inkscape-font-specification:TratexSvart;fill:#ffffff;fill-opacity:1">VUnit</tspan></text>
  <rect
     ry="25"
     rx="25"
     y="1800"
     x="1750"
     height="500"
     width="1477"
     id="rect980"
     style="opacity:1;fill:#0c479d;fill-opacity:1;stroke:none;stroke-width:0.85205632;stroke-miterlimit:4;stroke-dasharray:none;stroke-opacity:1" />
  <rect
     ry="25"
     rx="25"
     y="1815"
     x="1765"
     height="470"
     width="1447"
     id="rect982"
     style="opacity:1;fill:#ffffff;fill-opacity:1;stroke:none;stroke-width:0.87731457;stroke-miterlimit:4;stroke-dasharray:none;stroke-opacity:1" />
  <text
     id="text986"
     y="2242"
     x="1793.7812"
     style="font-style:normal;font-weight:normal;font-size:40px;line-height:1.25;font-family:sans-serif;letter-spacing:0px;word-spacing:0px;fill:#0c479d;fill-opacity:1;stroke:none"
     xml:space="preserve"><tspan
       style="font-style:normal;font-variant:normal;font-weight:normal;font-stretch:normal;font-size:469.333px;font-family:TratexSvart;-inkscape-font-specification:TratexSvart;fill:#0c479d;fill-opacity:1"
       y="2242"
       x="1793.7812"
       id="tspan984"
       sodipodi:role="line">VUnit</tspan></text>
  <text
     xml:space="preserve"
     style="font-style:normal;font-weight:normal;font-size:40px;line-height:1.25;font-family:sans-serif;letter-spacing:0px;word-spacing:0px;fill:#ffffff;fill-opacity:1;stroke:#0c479d;stroke-width:0.5;stroke-miterlimit:4;stroke-dasharray:none;stroke-opacity:1"
     x="516.15619"
     y="1034.7917"
     id="text854-2-8"><tspan
       sodipodi:role="line"
       id="tspan852-3-4"
       x="516.15619"
       y="1034.7917"
       style="font-style:normal;font-variant:normal;font-weight:normal;font-stretch:normal;font-size:469.333px;font-family:TratexSvart;-inkscape-font-specification:TratexSvart;fill:#ffffff;fill-opacity:1;stroke:#0c479d;stroke-width:0.5;stroke-miterlimit:4;stroke-dasharray:none;stroke-opacity:1">Unit</tspan></text>
  <rect
     ry="25"
     rx="25"
     y="600"
     x="1750"
     height="500"
     width="500"
     id="rect990"
     style="opacity:1;fill:#0c479d;fill-opacity:1;stroke:none;stroke-width:0.5;stroke-miterlimit:4;stroke-dasharray:none;stroke-opacity:1" />
  <rect
     ry="25"
     rx="25"
     y="615"
     x="1765"
     height="470"
     width="470"
     id="rect992"
     style="opacity:1;fill:#ffffff;fill-opacity:1;stroke:none;stroke-width:0.5;stroke-miterlimit:4;stroke-dasharray:none;stroke-opacity:1" />
  <text
     id="text996"
     y="1029.4066"
     x="1811.0693"
     style="font-style:normal;font-weight:normal;font-size:40px;line-height:1.25;font-family:sans-serif;letter-spacing:0px;word-spacing:0px;fill:#0c479d;fill-opacity:1;stroke:none"
     xml:space="preserve"><tspan
       style="font-style:normal;font-variant:normal;font-weight:normal;font-stretch:normal;font-size:469.333px;font-family:TratexSvart;-inkscape-font-specification:TratexSvart;fill:#0c479d;fill-opacity:1"
       y="1029.4066"
       x="1811.0693"
       id="tspan994"
       sodipodi:role="line">V</tspan></text>
  <text
     id="text1000"
     y="1034.7917"
     x="2258.1562"
     style="font-style:normal;font-weight:normal;font-size:40px;line-height:1.25;font-family:sans-serif;letter-spacing:0px;word-spacing:0px;fill:#0c479d;fill-opacity:1;stroke:none"
     xml:space="preserve"><tspan
       style="font-style:normal;font-variant:normal;font-weight:normal;font-stretch:normal;font-size:469.333px;font-family:TratexSvart;-inkscape-font-specification:TratexSvart;fill:#0c479d;fill-opacity:1"
       y="1034.7917"
       x="2258.1562"
       id="tspan998"
       sodipodi:role="line">Unit</tspan></text>
  <text
     id="text876"
     y="1634.7917"
     x="516.15619"
     style="font-style:normal;font-weight:normal;font-size:40px;line-height:1.25;font-family:sans-serif;letter-spacing:0px;word-spacing:0px;fill:#0c479d;fill-opacity:1;stroke:#ffffff;stroke-opacity:1;stroke-width:5;stroke-miterlimit:4;stroke-dasharray:none"
     xml:space="preserve"
     inkscape:export-xdpi="81.972984"
     inkscape:export-ydpi="81.972984"
     inkscape:export-filename="D:\data-dev\umarcor\dbhi\dbhi-gh\VUnit\vunit\docs\_static\VUnit_banner.png"><tspan
       style="font-style:normal;font-variant:normal;font-weight:normal;font-stretch:normal;font-size:469.333px;font-family:TratexSvart;-inkscape-font-specification:TratexSvart;fill:#0c479d;fill-opacity:1;stroke:#ffffff;stroke-opacity:1;stroke-width:5;stroke-miterlimit:4;stroke-dasharray:none"
       y="1634.7917"
       x="516.15619"
       id="tspan874"
       sodipodi:role="line">Unit</tspan></text>
  <rect
     style="opacity:1;fill:#0c479d;fill-opacity:1;stroke:none;stroke-width:0.5;stroke-miterlimit:4;stroke-dasharray:none;stroke-opacity:1"
     id="rect878"
     width="500"
     height="500"
     x="1750"
     y="1200"
     rx="25"
     ry="25" />
  <rect
     style="opacity:1;fill:#ffffff;fill-opacity:1;stroke:none;stroke-width:0.5;stroke-miterlimit:4;stroke-dasharray:none;stroke-opacity:1"
     id="rect880"
     width="470"
     height="470"
     x="1765"
     y="1215"
     rx="25"
     ry="25" />
  <text
     xml:space="preserve"
     style="font-style:normal;font-weight:normal;font-size:40px;line-height:1.25;font-family:sans-serif;letter-spacing:0px;word-spacing:0px;fill:#0c479d;fill-opacity:1;stroke:none"
     x="1808.9507"
     y="1639.9999"
     id="text884"><tspan
       sodipodi:role="line"
       id="tspan882"
       x="1808.9507"
       y="1639.9999"
       style="font-style:normal;font-variant:normal;font-weight:normal;font-stretch:normal;font-size:469.333px;font-family:TratexSvart;-inkscape-font-specification:TratexSvart;fill:#0c479d;fill-opacity:1">V</tspan></text>
  <text
     xml:space="preserve"
     style="font-style:normal;font-weight:normal;font-size:40px;line-height:1.25;font-family:sans-serif;letter-spacing:0px;word-spacing:0px;fill:#ffffff;fill-opacity:1;stroke:#0c479d;stroke-width:0.5;stroke-miterlimit:4;stroke-dasharray:none;stroke-opacity:1"
     x="2258.1562"
     y="1634.7917"
     id="text888"><tspan
       sodipodi:role="line"
       id="tspan886"
       x="2258.1562"
       y="1634.7917"
       style="font-style:normal;font-variant:normal;font-weight:normal;font-stretch:normal;font-size:469.333px;font-family:TratexSvart;-inkscape-font-specification:TratexSvart;fill:#ffffff;fill-opacity:1;stroke:#0c479d;stroke-width:0.5;stroke-miterlimit:4;stroke-dasharray:none;stroke-opacity:1">Unit</tspan></text>
  <path
     style="fill:#0c479d;fill-opacity:1;fill-rule:nonzero;stroke-width:1.01508"
     inkscape:connector-curvature="0"
     id="path918"
     d="m 26.30738,1196.51 c -7.8218,0 -15.32015,3.0922 -20.84794,8.62 -5.52778,5.528 -8.62019,13.0263 -8.62019,20.838 v 446.3587 c 0,7.8116 3.09241,15.3102 8.62019,20.838 5.52779,5.5278 13.02614,8.6303 20.84794,8.6303 h 446.34864 c 7.8218,0 15.3203,-3.1025 20.84806,-8.6303 5.52779,-5.5278 8.62021,-13.0264 8.62021,-20.838 V 1225.968 c 0,-7.8117 -3.09242,-15.31 -8.62021,-20.838 -5.52776,-5.5278 -13.02626,-8.62 -20.84806,-8.62 z"
     inkscape:export-xdpi="81.972984"
     inkscape:export-ydpi="81.972984"
     inkscape:export-filename="D:\data-dev\umarcor\dbhi\dbhi-gh\VUnit\vunit\docs\_static\VUnit_banner.png" />
  <path
     style="fill:#ffffff;fill-rule:nonzero;stroke-width:0.999896"
     inkscape:connector-curvature="0"
     id="white_boarder-9"
     d="m 29.64511,1200.2903 c -7.70479,0 -15.09097,3.0459 -20.53605,8.491 -5.44509,5.4453 -8.49124,12.8315 -8.49124,20.5263 v 439.6802 c 0,7.6948 3.04615,15.0812 8.49124,20.5263 5.44508,5.4451 12.83126,8.5012 20.53605,8.5012 h 439.67127 c 7.70479,0 15.09111,-3.0561 20.53618,-8.5012 5.4451,-5.4451 8.49124,-12.8315 8.49124,-20.5263 v -439.6802 c 0,-7.6948 -3.04614,-15.081 -8.49124,-20.5263 -5.44507,-5.4451 -12.83139,-8.491 -20.53618,-8.491 z"
     inkscape:export-xdpi="81.972984"
     inkscape:export-ydpi="81.972984"
     inkscape:export-filename="D:\data-dev\umarcor\dbhi\dbhi-gh\VUnit\vunit\docs\_static\VUnit_banner.png" />
  <path
     style="fill:#0c479d;fill-rule:nonzero"
     inkscape:connector-curvature="0"
     d="m 17.48952,1664.7964 c 0,4.3212 1.7127,8.4631 4.75983,11.5098 3.05685,3.0565 7.18946,4.7692 11.51096,4.7692 h 431.48914 c 4.32175,0 8.45413,-1.7127 11.51123,-4.7692 3.047,-3.0467 4.75983,-7.1886 4.75983,-11.5098 v -431.4261 c 0,-4.3209 -1.71283,-8.463 -4.75983,-11.5098 -3.0571,-3.0564 -7.18948,-4.759 -11.51123,-4.759 H 33.76031 c -4.3215,0 -8.45412,1.7026 -11.51096,4.759 -3.04713,3.0468 -4.75983,7.1889 -4.75983,11.5098 z"
     id="blue_background-7"
     inkscape:export-xdpi="81.972984"
     inkscape:export-ydpi="81.972984"
     inkscape:export-filename="D:\data-dev\umarcor\dbhi\dbhi-gh\VUnit\vunit\docs\_static\VUnit_banner.png" />
  <polygon
     style="fill:#ffffff"
     points="301.03222,437.34089 199.18294,437.34089 80.223104,62.535785 151.92495,62.535785 250.51508,371.3426 348.29058,62.535785 419.99239,62.535785 "
     id="v-4"
     inkscape:export-xdpi="81.972984"
     inkscape:export-ydpi="81.972984"
     transform="translate(-0.51508,1199.0952)"
     inkscape:export-filename="D:\data-dev\umarcor\dbhi\dbhi-gh\VUnit\vunit\docs\_static\VUnit_banner.png" />
  <path
     style="fill:#0c479d;fill-opacity:1;fill-rule:nonzero;stroke-width:1.01508"
     inkscape:connector-curvature="0"
     id="path1617"
     d="m 26.30738,596.93373 c -7.8218,0 -15.32015,3.0922 -20.84794,8.62 -5.52778,5.528 -8.62019,13.0263 -8.62019,20.838 v 446.35867 c 0,7.8116 3.09241,15.3102 8.62019,20.838 5.52779,5.5278 13.02614,8.6303 20.84794,8.6303 h 446.34864 c 7.8218,0 15.3203,-3.1025 20.84806,-8.6303 5.52779,-5.5278 8.62021,-13.0264 8.62021,-20.838 V 626.39173 c 0,-7.8117 -3.09242,-15.31 -8.62021,-20.838 -5.52776,-5.5278 -13.02626,-8.62 -20.84806,-8.62 z"
     inkscape:export-xdpi="37.998356"
     inkscape:export-ydpi="37.998356"
     inkscape:export-filename="D:\data-dev\umarcor\dbhi\dbhi-gh\VUnit\vunit\docs\_static\VUnit_logo.png" />
  <path
     style="fill:#ffffff;fill-rule:nonzero;stroke-width:0.999896"
     inkscape:connector-curvature="0"
     id="path1619"
     d="m 29.64511,600.71403 c -7.70479,0 -15.09097,3.0459 -20.53605,8.491 -5.44509,5.4453 -8.49124,12.8315 -8.49124,20.5263 v 439.68017 c 0,7.6948 3.04615,15.0812 8.49124,20.5263 5.44508,5.4451 12.83126,8.5012 20.53605,8.5012 h 439.67127 c 7.70479,0 15.09111,-3.0561 20.53618,-8.5012 5.4451,-5.4451 8.49124,-12.8315 8.49124,-20.5263 V 629.73133 c 0,-7.6948 -3.04614,-15.081 -8.49124,-20.5263 -5.44507,-5.4451 -12.83139,-8.491 -20.53618,-8.491 z"
     inkscape:export-xdpi="37.998356"
     inkscape:export-ydpi="37.998356"
     inkscape:export-filename="D:\data-dev\umarcor\dbhi\dbhi-gh\VUnit\vunit\docs\_static\VUnit_logo.png" />
  <path
     style="fill:#0c479d;fill-rule:nonzero"
     inkscape:connector-curvature="0"
     d="m 17.48952,1065.2201 c 0,4.3212 1.7127,8.4631 4.75983,11.5098 3.05685,3.0565 7.18946,4.7692 11.51096,4.7692 h 431.48914 c 4.32175,0 8.45413,-1.7127 11.51123,-4.7692 3.047,-3.0467 4.75983,-7.1886 4.75983,-11.5098 V 633.79403 c 0,-4.3209 -1.71283,-8.463 -4.75983,-11.5098 -3.0571,-3.0564 -7.18948,-4.759 -11.51123,-4.759 H 33.76031 c -4.3215,0 -8.45412,1.7026 -11.51096,4.759 -3.04713,3.0468 -4.75983,7.1889 -4.75983,11.5098 z"
     id="path1621"
     inkscape:export-xdpi="37.998356"
     inkscape:export-ydpi="37.998356"
     inkscape:export-filename="D:\data-dev\umarcor\dbhi\dbhi-gh\VUnit\vunit\docs\_static\VUnit_logo.png" />
  <polygon
     style="fill:#ffffff"
     points="199.18294,437.34089 80.223104,62.535785 151.92495,62.535785 250.51508,371.3426 348.29058,62.535785 419.99239,62.535785 301.03222,437.34089 "
     id="polygon1623"
     inkscape:export-xdpi="37.998356"
     inkscape:export-ydpi="37.998356"
     transform="translate(-0.51508,599.51893)"
     inkscape:export-filename="D:\data-dev\umarcor\dbhi\dbhi-gh\VUnit\vunit\docs\_static\VUnit_logo.png" />
  <path
     style="fill:#0c479d;fill-opacity:1;fill-rule:nonzero;stroke-width:1.01508"
     inkscape:connector-curvature="0"
     id="path1705"
     d="m 26.30738,-2.3093065 c -7.8218,0 -15.32015,3.09219999 -20.84794,8.62 C -0.06834,11.838693 -3.16075,19.336993 -3.16075,27.148693 V 473.50736 c 0,7.8116 3.09241,15.3102 8.62019,20.838 5.52779,5.5278 13.02614,8.6303 20.84794,8.6303 h 446.34864 c 7.8218,0 15.3203,-3.1025 20.84806,-8.6303 5.52779,-5.5278 8.62021,-13.0264 8.62021,-20.838 V 27.148693 c 0,-7.8117 -3.09242,-15.31 -8.62021,-20.8379995 -5.52776,-5.52780001 -13.02626,-8.62 -20.84806,-8.62 z"
     inkscape:export-xdpi="37.998356"
     inkscape:export-ydpi="37.998356"
     inkscape:export-filename="D:\data-dev\umarcor\dbhi\dbhi-gh\VUnit\vunit\docs\_static\VUnit_logo.png" />
  <path
     style="fill:#ffffff;fill-rule:nonzero;stroke-width:0.999896"
     inkscape:connector-curvature="0"
     id="path1707"
     d="m 29.64511,1.4709935 c -7.70479,0 -15.09097,3.0459 -20.53605,8.491 C 3.66397,15.407293 0.61782,22.793493 0.61782,30.488293 V 470.16846 c 0,7.6948 3.04615,15.0812 8.49124,20.5263 5.44508,5.4451 12.83126,8.5012 20.53605,8.5012 h 439.67127 c 7.70479,0 15.09111,-3.0561 20.53618,-8.5012 5.4451,-5.4451 8.49124,-12.8315 8.49124,-20.5263 V 30.488293 c 0,-7.6948 -3.04614,-15.081 -8.49124,-20.5262995 -5.44507,-5.4451 -12.83139,-8.491 -20.53618,-8.491 z"
     inkscape:export-xdpi="37.998356"
     inkscape:export-ydpi="37.998356"
     inkscape:export-filename="D:\data-dev\umarcor\dbhi\dbhi-gh\VUnit\vunit\docs\_static\VUnit_logo.png" />
  <path
     style="fill:#0c479d;fill-rule:nonzero"
     inkscape:connector-curvature="0"
     d="m 17.48952,465.97706 c 0,4.3212 1.7127,8.4631 4.75983,11.5098 3.05685,3.0565 7.18946,4.7692 11.51096,4.7692 h 431.48914 c 4.32175,0 8.45413,-1.7127 11.51123,-4.7692 3.047,-3.0467 4.75983,-7.1886 4.75983,-11.5098 V 34.550993 c 0,-4.3209 -1.71283,-8.463 -4.75983,-11.5098 -3.0571,-3.0564 -7.18948,-4.759 -11.51123,-4.759 H 33.76031 c -4.3215,0 -8.45412,1.7026 -11.51096,4.759 -3.04713,3.0468 -4.75983,7.1889 -4.75983,11.5098 z"
     id="path1709"
     inkscape:export-xdpi="37.998356"
     inkscape:export-ydpi="37.998356"
     inkscape:export-filename="D:\data-dev\umarcor\dbhi\dbhi-gh\VUnit\vunit\docs\_static\VUnit_logo.png" />
  <polygon
     style="fill:#ffffff"
     points="80.223104,62.535785 151.92495,62.535785 250.51508,371.3426 348.29058,62.535785 419.99239,62.535785 301.03222,437.34089 199.18294,437.34089 "
     id="polygon1711"
     inkscape:export-xdpi="37.998356"
     inkscape:export-ydpi="37.998356"
     transform="translate(-0.51508,0.27589349)"
     inkscape:export-filename="D:\data-dev\umarcor\dbhi\dbhi-gh\VUnit\vunit\docs\_static\VUnit_logo.png" />
</svg>
