<svg width="499.9999999999999" height="499.9999999999999" xmlns="http://www.w3.org/2000/svg">
 <metadata id="metadata7">image/svg+xml</metadata>
 <g>
  <title>Layer 1</title>
  <path fill="#0c479d" fill-rule="nonzero" id="corners" d="m0,0l500,0l0,500l-500,0l0,-500z"/>
  <path d="m30.16622,1.19512c-7.70639,0 -15.0941,3.04589 -20.54032,8.49098c-5.44622,5.44532 -8.493,12.83149 -8.493,20.5263l0,439.68018c0,7.69479 3.04678,15.08121 8.493,20.52628c5.44622,5.4451 12.83393,8.50119 20.54032,8.50119l439.76258,0c7.70639,0 15.09424,-3.05609 20.54044,-8.50119c5.44623,-5.44507 8.49301,-12.83148 8.49301,-20.52628l0,-439.68018c0,-7.69481 -3.04678,-15.08097 -8.49301,-20.5263c-5.4462,-5.44508 -12.83405,-8.49098 -20.54044,-8.49098l-439.76258,0z" id="white_boarder" fill-rule="nonzero" fill="#ffffff"/>
  <path fill="#0c479d" fill-rule="nonzero" id="blue_background" d="m18.0046,465.70123c0,4.3212 1.7127,8.46304 4.75983,11.50977c3.05685,3.05649 7.18946,4.76923 11.51096,4.76923l431.48914,0c4.32175,0 8.45413,-1.71274 11.51123,-4.76923c3.047,-3.04672 4.75983,-7.18857 4.75983,-11.50977l0,-431.42608c0,-4.32097 -1.71283,-8.46304 -4.75983,-11.5098c-3.0571,-3.05647 -7.18948,-4.75901 -11.51123,-4.75901l-431.48914,0c-4.3215,0 -8.45412,1.70253 -11.51096,4.75901c-3.04713,3.04675 -4.75983,7.18882 -4.75983,11.5098l0,431.42608z"/>
  <polygon id="v" points="419.9923907518387,62.53578460216522 301.0322161912918,437.34089171886444 199.18294250965118,437.34089171886444 80.22310364246368,62.53578460216522 151.92494690418243,62.53578460216522 250.51508057117462,371.34260070323944 348.29057800769806,62.53578460216522 " fill="#FFFFFF"/>
 </g>
</svg>
