<?xml version="1.0" encoding="UTF-8" standalone="no"?>
<svg
   xmlns:dc="http://purl.org/dc/elements/1.1/"
   xmlns:cc="http://creativecommons.org/ns#"
   xmlns:rdf="http://www.w3.org/1999/02/22-rdf-syntax-ns#"
   xmlns:svg="http://www.w3.org/2000/svg"
   xmlns="http://www.w3.org/2000/svg"
   xmlns:sodipodi="http://sodipodi.sourceforge.net/DTD/sodipodi-0.dtd"
   xmlns:inkscape="http://www.inkscape.org/namespaces/inkscape"
   width="499.9999999999999"
   height="499.9999999999999"
   version="1.1"
   id="svg11"
   sodipodi:docname="vunit.svg"
   inkscape:version="0.92.4 (5da689c313, 2019-01-14)">
  <defs
     id="defs15" />
  <sodipodi:namedview
     pagecolor="#ffffff"
     bordercolor="#666666"
     borderopacity="1"
     objecttolerance="10"
     gridtolerance="10"
     guidetolerance="10"
     inkscape:pageopacity="0"
     inkscape:pageshadow="2"
     inkscape:window-width="1920"
     inkscape:window-height="1017"
     id="namedview13"
     showgrid="false"
     inkscape:zoom="1.3350176"
     inkscape:cx="378.69231"
     inkscape:cy="229.06003"
     inkscape:window-x="-8"
     inkscape:window-y="1072"
     inkscape:window-maximized="1"
     inkscape:current-layer="svg11" />
  <metadata
     id="metadata7">image/svg+xml<rdf:RDF>
  <cc:Work
     rdf:about="">
    <dc:format>image/svg+xml</dc:format>
    <dc:type
       rdf:resource="http://purl.org/dc/dcmitype/StillImage" />
  </cc:Work>
</rdf:RDF>
</metadata>
  <path
     style="fill:#ffffff;fill-rule:nonzero"
     inkscape:connector-curvature="0"
     id="white_boarder"
     d="m 30.16622,1.19512 c -7.70639,0 -15.0941,3.04589 -20.54032,8.49098 -5.44622,5.44532 -8.493,12.83149 -8.493,20.5263 v 439.68018 c 0,7.69479 3.04678,15.08121 8.493,20.52628 5.44622,5.4451 12.83393,8.50119 20.54032,8.50119 H 469.9288 c 7.70639,0 15.09424,-3.05609 20.54044,-8.50119 5.44623,-5.44507 8.49301,-12.83148 8.49301,-20.52628 V 30.2124 c 0,-7.69481 -3.04678,-15.08097 -8.49301,-20.5263 -5.4462,-5.44508 -12.83405,-8.49098 -20.54044,-8.49098 z"
     inkscape:export-xdpi="81.008606"
     inkscape:export-ydpi="81.008606" />
  <path
     style="fill:#0c479d;fill-rule:nonzero"
     inkscape:connector-curvature="0"
     d="m 18.0046,465.70123 c 0,4.3212 1.7127,8.46304 4.75983,11.50977 3.05685,3.05649 7.18946,4.76923 11.51096,4.76923 h 431.48914 c 4.32175,0 8.45413,-1.71274 11.51123,-4.76923 3.047,-3.04672 4.75983,-7.18857 4.75983,-11.50977 V 34.27515 c 0,-4.32097 -1.71283,-8.46304 -4.75983,-11.5098 -3.0571,-3.05647 -7.18948,-4.75901 -11.51123,-4.75901 H 34.27539 c -4.3215,0 -8.45412,1.70253 -11.51096,4.75901 -3.04713,3.04675 -4.75983,7.18882 -4.75983,11.5098 z"
     id="blue_background"
     inkscape:export-xdpi="81.008606"
     inkscape:export-ydpi="81.008606" />
  <polygon
     style="fill:#ffffff"
     points="151.92495,62.535785 250.51508,371.3426 348.29058,62.535785 419.99239,62.535785 301.03222,437.34089 199.18294,437.34089 80.223104,62.535785 "
     id="v"
     inkscape:export-xdpi="81.008606"
     inkscape:export-ydpi="81.008606" />
</svg>
